<?xml version="1.0" encoding="utf-8"?>
<!-- Generator: Adobe Illustrator 17.1.0, SVG Export Plug-In . SVG Version: 6.00 Build 0)  -->
<!DOCTYPE svg PUBLIC "-//W3C//DTD SVG 1.1//EN" "http://www.w3.org/Graphics/SVG/1.1/DTD/svg11.dtd">
<svg version="1.1" id="crown" xmlns="http://www.w3.org/2000/svg" xmlns:xlink="http://www.w3.org/1999/xlink" x="0px" y="0px"
	 viewBox="402 414 198 168" enable-background="new 402 414 198 168" xml:space="preserve">
<path fill="none" stroke="#313131" stroke-width="5" stroke-miterlimit="10" d="M449,574.7c0,0-11-51.2-35.5-75.8
	c0,0,41.8,43,40.4-15.7c0,0,37.8,65.3,46.5-29.1c0,0,17.1,95,48.5,25.1c0,0,3.3,57.9,41.3,13.5c0,0-24,35.3-31.4,82.8
	c-0.3,1.6,0,0,0,0s-89.5-0.9-109.3-0.2"/>
<circle fill="#313131" stroke="#313131" stroke-width="2" stroke-miterlimit="10" cx="413.5" cy="498.8" r="3.6"/>
<circle fill="#313131" stroke="#313131" stroke-width="2" stroke-miterlimit="10" cx="450.2" cy="472.4" r="3.6"/>
<circle fill="#313131" stroke="#313131" stroke-width="2" stroke-miterlimit="10" cx="550.4" cy="468.8" r="3.6"/>
<circle fill="#313131" stroke="#313131" stroke-width="2" stroke-miterlimit="10" cx="591.7" cy="491.1" r="3.6"/>
<path fill="#313131" stroke="#313131" stroke-width="3" stroke-miterlimit="10" d="M500.2,442.1c0,0-9.3-17.6-1.4-18.8
	C508.5,421.7,502.7,438.2,500.2,442.1z"/>
</svg>
