<?xml version="1.0" encoding="utf-8"?>
<!-- Generator: Adobe Illustrator 17.1.0, SVG Export Plug-In . SVG Version: 6.00 Build 0)  -->
<!DOCTYPE svg PUBLIC "-//W3C//DTD SVG 1.1//EN" "http://www.w3.org/Graphics/SVG/1.1/DTD/svg11.dtd">
<svg version="1.1" id="Layer_1" xmlns="http://www.w3.org/2000/svg" xmlns:xlink="http://www.w3.org/1999/xlink" x="0px" y="0px"
	 viewBox="0 0 20 20" enable-background="new 0 0 20 20" xml:space="preserve">
<path id="instagram-icon" fill="#010101" d="M14.1,7.2h5.8v8.9c0,2.2-1.8,3.9-3.9,3.9h-12C1.7,20,0,18.3,0,16.1V7.2h5.8
	C5.2,8,4.8,9,4.8,10.1c0,2.8,2.3,5.1,5.1,5.1s5.1-2.3,5.1-5.1C15,9,14.7,8,14.1,7.2z M19.9,3.9v2.6h-6.3C12.6,5.6,11.3,5,9.9,5
	C8.5,5,7.2,5.6,6.3,6.5H0V3.9c0-1.3,0.7-2.5,1.7-3.2V5h0.8V0.3C2.6,0.2,2.8,0.2,3,0.1V5h0.8V0c0,0,0.1,0,0.1,0h0.5v5h0.8V0H16
	C18.1,0,19.9,1.8,19.9,3.9z M18.1,2.3c0-0.3-0.3-0.6-0.6-0.6h-2.1c-0.3,0-0.6,0.3-0.6,0.6v2.2c0,0.3,0.3,0.6,0.6,0.6h2.1
	c0.3,0,0.6-0.3,0.6-0.6V2.3L18.1,2.3z M6,10.1c0-1.2,0.5-2.2,1.3-3c0.3-0.3,0.6-0.5,1-0.6c0.5-0.2,1-0.4,1.6-0.4s1.1,0.1,1.6,0.4
	c0.4,0.2,0.7,0.4,1,0.6c0.8,0.7,1.3,1.8,1.3,3c0,2.2-1.8,3.9-3.9,3.9S6,12.3,6,10.1z M7,10.1C7,11.7,8.3,13,9.9,13
	c1.6,0,2.9-1.3,2.9-2.9c0-1.6-1.3-2.9-2.9-2.9C8.3,7.2,7,8.5,7,10.1z"/>
</svg>
