<?xml version="1.0" encoding="utf-8"?>
<!-- Generator: Adobe Illustrator 17.1.0, SVG Export Plug-In . SVG Version: 6.00 Build 0)  -->
<!DOCTYPE svg PUBLIC "-//W3C//DTD SVG 1.1//EN" "http://www.w3.org/Graphics/SVG/1.1/DTD/svg11.dtd">
<svg version="1.1" xmlns="http://www.w3.org/2000/svg" xmlns:xlink="http://www.w3.org/1999/xlink" x="0px" y="0px"
	 viewBox="0 0 612 637.7" enable-background="new 0 0 612 637.7" xml:space="preserve">
<g id="Layer_6">
</g>
<g id="background">
	<ellipse fill="#FFEFE7" cx="306.5" cy="317.1" rx="303.9" ry="317.1"/>
</g>
<g id="crown">
	<path fill="none" stroke="#313131" stroke-width="5" stroke-miterlimit="10" d="M317.3,182.6c0,0,29.2-59.3,24.2-102.8
		c0,0,7.7,75.3,52.1,16c0,0-13.6,94.2,68.7,7.7c0,0-57.4,107.4,28.4,62.8c0,0-42.1,59.8,30.2,45.6c0,0-51.1,16.4-95.8,57.4s0,0,0,0
		s-26.8-86-108-85.7"/>
	<circle fill="#313131" stroke="#313131" stroke-width="2" stroke-miterlimit="10" cx="341.5" cy="79.8" r="4.5"/>
	<circle fill="#313131" stroke="#313131" stroke-width="2" stroke-miterlimit="10" cx="398.7" cy="82.2" r="4.5"/>
	<circle fill="#313131" stroke="#313131" stroke-width="2" stroke-miterlimit="10" cx="500.7" cy="157.1" r="4.5"/>
	<circle fill="#313131" stroke="#313131" stroke-width="2" stroke-miterlimit="10" cx="521" cy="211.9" r="4.5"/>
	<path fill="#313131" stroke="#313131" stroke-width="3" stroke-miterlimit="10" d="M469.3,94.5c0,0,4.6-24.6,13.3-19.8
		C493.5,80.7,474.9,92.4,469.3,94.5z"/>
</g>
<g id="Text">
</g>
<g id="lineart">
	<g>
		<path fill="#313131" d="M214.1,461.1c0,0,0.7,0.4,1.5,1.3c0.4,0.5,0.7,1.1,1,1.8c0.1,0.4,0.2,0.8,0.2,1.2c0,0.4,0,0.9-0.2,1.4
			c-0.1,0.2-0.1,0.5-0.3,0.7c-0.1,0.2-0.3,0.4-0.4,0.6c-0.3,0.4-0.7,0.6-1,0.9c-0.4,0.2-0.7,0.4-1.1,0.5c-0.3,0.1-0.7,0.2-1,0.2
			c-0.3,0.1-0.6,0.1-0.8,0.1c-0.2,0-0.5,0-0.6,0c-0.3,0-0.5-0.1-0.5-0.1s0.2-0.1,0.5-0.3c0.3-0.2,0.7-0.4,1.1-0.7
			c0.2-0.2,0.4-0.3,0.7-0.5c0.2-0.2,0.4-0.4,0.6-0.6c0.1-0.2,0.4-0.4,0.5-0.6c0.1-0.1,0.1-0.2,0.2-0.3c0.1-0.1,0.1-0.2,0.1-0.4
			c0.1-0.1,0.1-0.2,0.1-0.4c0-0.1,0.1-0.3,0.1-0.4c0-0.3,0-0.6,0-0.9c0-0.6-0.2-1.2-0.3-1.7C214.3,461.8,214.1,461.1,214.1,461.1z"
			/>
	</g>
	<g>
		<path fill="#313131" d="M183.7,478.7c0,0-1,0.2-2.7,0.5c-1.7,0.2-4.2,0.4-7.1,0.3c-1.5-0.1-3.1-0.2-4.8-0.6
			c-1.7-0.3-3.5-0.8-5.2-1.6c-1.8-0.8-3.5-1.8-5-3.2c-1.5-1.4-2.7-3.2-3.4-5.2c-0.7-2-1-4-1-6.1c0-0.5,0-1,0-1.4c0-0.5,0-1,0-1.5
			c0.1-1,0.2-2,0.5-3c0.3-1,0.9-1.9,1.6-2.6c0.7-0.7,1.5-1.2,2.3-1.6c1.7-0.7,3.3-1,4.8-1.1c1.5-0.1,2.9-0.1,4.1,0
			c1.2,0.1,2.2,0.2,3.1,0.3c0.9,0.1,1.5,0.2,2,0.3c0.5,0.1,0.7,0.1,0.7,0.1s-1-0.1-2.7-0.1c-0.9,0-1.9,0-3.1,0
			c-1.2,0-2.5,0.1-3.9,0.4c-1.4,0.2-2.9,0.6-4.3,1.3c-0.7,0.4-1.3,0.8-1.8,1.4c-0.5,0.6-0.9,1.3-1.1,2c-0.5,1.5-0.3,3.4-0.3,5.3
			c0,1.8,0.3,3.7,1,5.4c0.7,1.7,1.6,3.2,2.9,4.5c1.3,1.3,2.8,2.2,4.4,3c3.2,1.5,6.5,2.2,9.4,2.6c2.9,0.4,5.3,0.5,7,0.5
			C182.7,478.8,183.7,478.7,183.7,478.7z"/>
	</g>
	<g>
		<path fill="#313131" d="M260.6,498.6c0,0-0.2,0.4-0.7,1c-0.5,0.7-1.2,1.6-2.1,2.8c-1.9,2.4-4.8,5.6-8.5,9.2
			c-3.8,3.6-8.4,7.5-13.9,11.2c-1.4,0.9-2.8,1.8-4.3,2.7c-1.5,0.9-3,1.7-4.5,2.5c-3.1,1.6-6.4,3-9.9,4.1c-3.5,1.1-7.1,2-10.7,2.3
			c-3.7,0.4-7.4,0.3-10.9-0.4c-3.5-0.7-6.9-2-9.7-3.7c-2.8-1.7-5.1-3.8-6.9-5.9c-1.8-2.1-3.1-4.2-4.2-6.1c-1-1.9-1.7-3.7-2.2-5.1
			c-0.2-0.7-0.5-1.4-0.6-1.9c-0.1-0.6-0.3-1.1-0.4-1.5c-0.2-0.8-0.3-1.2-0.3-1.2s0.3,0.3,0.8,1c0.2,0.3,0.5,0.7,0.9,1.2
			c0.4,0.5,0.8,1,1.2,1.6c0.9,1.2,2.1,2.5,3.5,4c1.4,1.4,3,3,4.9,4.4c3.8,2.8,8.7,5,14.2,5.5c1.4,0.1,2.8,0.1,4.3,0.1
			c1.5-0.1,2.9-0.2,4.4-0.4c3-0.5,6-1.2,9-2.2c3-1,6-2.2,8.9-3.5c1.5-0.7,2.9-1.3,4.3-2c1.4-0.7,2.8-1.4,4.2-2.1
			c5.5-2.9,10.5-5.8,14.8-8.5c4.3-2.6,7.9-4.9,10.5-6.5C259.2,499.5,260.6,498.6,260.6,498.6z"/>
	</g>
	<g>
		<path fill="none" stroke="#000000" stroke-miterlimit="10" d="M124.3,406.8"/>
	</g>
	<g>
		<path fill="#313131" d="M124.3,406.8c-1.4,5.5-2.5,11.2-3.3,16.8c-0.8,5.6-1.4,11.3-1.6,17c-0.1,5.7,0.1,11.4,1.3,16.9
			c1.1,5.6,2.8,11,5.2,16.1c2.4,5.1,5.6,9.8,8.7,14.7l9.3,14.4l2.3,3.6c0.8,1.2,1.5,2.4,2.2,3.7c1.4,2.5,2.9,5,4.3,7.5l8.3,15
			l-0.2-0.2c2.1,2.5,3.8,5.1,5.3,7.8c1.5,2.8,2.8,5.6,3.7,8.7c0.2,0.8,0.5,1.5,0.6,2.3l0.5,2.3c0.2,0.7,0.3,1.5,0.5,2.2
			c0.2,0.7,0.4,1.4,0.7,2.1c1,2.8,2.4,5.4,4,7.8c1.7,2.4,3.6,4.7,5.8,6.6c0.5,0.4,1.2,0.9,1.8,1.4l1.8,1.4c1.2,0.9,2.4,1.8,3.7,2.5
			c2.5,1.5,5.2,2.4,8.1,3.1c3,0.7,5.9,1.5,8.9,2c5.9,1.1,11.9,1.4,17.9,0.9c1.5-0.2,3.1-0.2,4.3-0.6c1.4-0.4,2.8-0.9,4.2-1.4
			c2.8-1.1,5.6-2.3,8.4-3.5c11.1-5,21.8-10.9,32.2-17.3c10.4-6.3,20.6-13.2,30.2-20.7c9.7-7.5,18.9-15.5,27.3-24.4
			c8.4-8.8,16.1-18.4,22.2-29c1.5-2.6,2.9-5.4,4.2-8.1c1.2-2.8,2.5-5.6,3.4-8.5c2.1-5.8,3.4-11.8,4.1-17.9c-0.5,6.1-1.7,12.2-3.6,18
			c-0.9,2.9-2.1,5.8-3.3,8.6c-1.3,2.8-2.6,5.6-4.1,8.3c-2.9,5.4-6.3,10.6-10,15.5c-3.7,5-7.6,9.7-11.8,14.2
			c-8.4,9-17.6,17.3-27.2,24.9c-9.6,7.6-19.7,14.7-30.2,21.2c-5.2,3.2-10.5,6.3-15.9,9.3c-5.4,2.9-10.9,5.7-16.5,8.3
			c-2.8,1.3-5.6,2.5-8.6,3.6c-1.5,0.5-2.9,1.1-4.5,1.5c-1.7,0.5-3.2,0.5-4.8,0.7c-6.2,0.6-12.5,0.3-18.7-0.8c-3.1-0.6-6.1-1.3-9-2
			c-1.5-0.4-3-0.8-4.6-1.3c-1.5-0.5-3-1.2-4.4-2.1c-1.4-0.8-2.7-1.8-3.9-2.7l-1.8-1.4c-0.6-0.5-1.2-0.9-1.9-1.5
			c-2.4-2.2-4.5-4.6-6.3-7.2c-1.8-2.6-3.2-5.5-4.3-8.5c-1.2-3.1-1.5-6.2-2.3-9c-0.8-2.8-2.1-5.6-3.5-8.2c-1.4-2.6-3.1-5.2-4.9-7.4
			l-0.1-0.1l-0.1-0.1l-8.2-15.1l-4.2-7.5c-0.7-1.3-1.4-2.5-2.2-3.7l-2.2-3.6l-9.1-14.6c-3-4.8-6.1-9.7-8.5-15
			c-2.4-5.3-4-10.9-5.1-16.6c-1-5.7-1.1-11.5-0.8-17.3c0.3-5.7,1-11.4,2-17.1c0.5-2.8,1.1-5.6,1.7-8.4
			C122.8,412.3,123.5,409.5,124.3,406.8z"/>
	</g>
	<g>
		<path fill="#313131" d="M118.4,366.1c0,0,0.1-0.2,0.3-0.6c0.2-0.4,0.5-0.9,0.9-1.6c0.5-0.7,1-1.5,1.8-2.3c0.4-0.4,0.9-0.9,1.4-1.3
			c0.3-0.2,0.6-0.4,1-0.6l0.1-0.1l0,0l0,0c0,0-0.1,0,0.1,0l0.1,0c0,0,0.2-0.1,0.4-0.1c0.3,0,0.5,0,0.7,0c1.5,0,3,0.3,4.5,0.7
			c1.5,0.4,3.1,0.8,4.7,1.3c3.2,1,6.6,2.2,10,3.7c1.7,0.7,3.3,1.5,4.9,2.3c1.6,0.8,3.1,1.7,4.6,2.5c1.4,0.9,2.8,1.8,4.1,2.7
			c1.3,0.9,2.4,1.9,3.4,2.8c2,1.9,3.4,3.7,4.2,5.1c0.4,0.7,0.6,1.3,0.8,1.7c0.1,0.4,0.2,0.6,0.2,0.6s-0.1-0.2-0.3-0.5
			c-0.2-0.3-0.6-0.8-1.1-1.4c-0.5-0.6-1.2-1.3-1.9-2c-0.8-0.7-1.7-1.5-2.8-2.2c-2.1-1.5-4.8-3.1-7.7-4.6c-1.5-0.8-3-1.5-4.6-2.2
			c-1.6-0.7-3.2-1.4-4.8-2.1c-1.6-0.7-3.3-1.3-4.9-1.9c-1.6-0.6-3.2-1.2-4.8-1.7c-1.6-0.5-3.1-1-4.5-1.4c-1.4-0.4-2.8-0.8-4-0.9
			c-0.3,0-0.3-0.1-0.5,0c-0.2,0.1-0.5,0.2-0.7,0.3c-0.5,0.2-1,0.5-1.4,0.8c-0.9,0.6-1.6,1.1-2.2,1.6
			C119.1,365.5,118.4,366.1,118.4,366.1z"/>
	</g>
	<g>
		<path fill="#313131" d="M260.6,498.6c0,0-4.2,0.3-10.6,0.4c-1.6,0-3.3,0.1-5.1,0c-1.8,0-3.7,0-5.7,0c-2,0-4,0-6.1-0.1
			c-2.1-0.1-4.2-0.1-6.3-0.2c-2.1-0.1-4.2-0.2-6.3-0.2c-2.1,0-4.1-0.2-6.1-0.3c-2,0-3.9-0.1-5.6-0.2c-0.9-0.1-1.8,0-2.6,0
			c-0.8,0-1.6,0-2.4,0c-1.5,0.2-2.9,0.2-4.2,0.4c-1.3,0.2-2.4,0.3-3.3,0.4c-1.9,0.2-2.9,0.2-2.9,0.2s1-0.3,2.8-0.8
			c0.9-0.2,2-0.5,3.2-0.9c1.2-0.4,2.7-0.7,4.3-1c1.6-0.2,3.3-0.5,5.2-0.5c1.8-0.1,3.7-0.2,5.7-0.2c2,0,4,0,6.1,0
			c2.1,0,4.2,0.1,6.3,0.1c2.1,0.1,4.2,0.2,6.3,0.3c2.1,0.1,4.1,0.2,6.1,0.3c2,0.1,3.9,0.3,5.7,0.4c1.8,0.1,3.5,0.3,5.1,0.5
			C256.4,498,260.6,498.6,260.6,498.6z"/>
	</g>
	<g>
		<path fill="#313131" d="M193.5,499.2c0,0-0.4,0.1-1.1,0.1c-0.4,0-0.8,0-1.3,0c-0.5,0-1,0-1.6-0.1c-0.6,0-1.2-0.1-1.9-0.1
			c-0.7,0-1.4-0.1-2-0.1c-0.7,0-1.5,0-2.3,0c-0.8,0-1.6,0-2.3,0c-0.8,0-1.5,0-2.3-0.1c-0.8,0-1.5,0-2.2,0l-0.5,0l-0.2,0l-0.3,0
			c-0.4,0-0.7,0-1,0c-0.6,0-1.3,0-1.8,0c-1.1,0-2.1,0.1-2.8,0.2c-0.7,0.1-1.1,0.1-1.1,0.1s0.1-0.1,0.2-0.2c0.1-0.1,0.4-0.3,0.7-0.5
			c0.3-0.2,0.7-0.4,1.1-0.7c0.5-0.2,1-0.5,1.6-0.7c0.6-0.2,1.2-0.4,1.9-0.6c0.4-0.1,0.7-0.1,1-0.2l0.3,0l0.3,0
			c0.2,0,0.4-0.1,0.6-0.1c0.8-0.1,1.5-0.2,2.3-0.2c0.8,0,1.6,0,2.5,0l1.2,0c0.4,0,0.8,0.1,1.2,0.1c0.8,0.1,1.5,0.2,2.3,0.3
			c0.8,0.1,1.5,0.3,2.2,0.5c0.7,0.2,1.3,0.4,1.9,0.6c0.6,0.2,1.1,0.4,1.5,0.6c0.5,0.2,0.8,0.4,1.2,0.5
			C193.1,499,193.5,499.2,193.5,499.2z"/>
	</g>
	<path fill="none" stroke="#000000" stroke-miterlimit="10" d="M192.6,481.8"/>
	<path fill="none" stroke="#000000" stroke-miterlimit="10" d="M192.6,481.8"/>
	<g>
		<path fill="#313131" d="M192.6,481.8c0,0,0.3,0,0.7,0c0.2,0,0.5,0.1,0.9,0.2c0.3,0.1,0.7,0.3,1,0.6c0.3,0.3,0.7,0.6,1,1
			c0.3,0.4,0.6,0.8,0.8,1.3c0.2,0.5,0.4,1,0.5,1.6c0.1,0.5,0.2,1.1,0.2,1.7c-0.1,0.6-0.1,1.1-0.2,1.7c-0.1,0.6-0.4,1.1-0.6,1.5
			c-0.2,0.5-0.6,0.9-0.9,1.3c-0.3,0.3-0.7,0.7-1,0.9c-0.3,0.2-0.7,0.4-1,0.6c-0.3,0.2-0.6,0.2-0.8,0.3c-0.4,0.2-0.7,0.3-0.7,0.3
			s0.2-0.2,0.6-0.4c0.2-0.1,0.4-0.3,0.7-0.5c0.2-0.2,0.5-0.5,0.8-0.7c0.3-0.3,0.5-0.6,0.8-1c0.2-0.4,0.5-0.8,0.7-1.2
			c0.2-0.4,0.3-0.9,0.4-1.4c0.1-0.5,0.1-1,0.2-1.5c0-0.5,0-1-0.1-1.5c-0.1-0.5-0.2-1-0.4-1.4c-0.2-0.4-0.4-0.9-0.6-1.2
			c-0.2-0.4-0.5-0.7-0.7-1c-0.3-0.3-0.5-0.5-0.8-0.7c-0.3-0.1-0.5-0.3-0.7-0.4C192.9,481.9,192.6,481.8,192.6,481.8z"/>
	</g>
	<g>
		<path fill="#313131" d="M280.2,481.8c0,0,1.2,0,3.4-0.2c2.1-0.2,5.2-0.6,8.8-1.5c1.8-0.4,3.7-1,5.7-1.7c2-0.7,4-1.6,6.1-2.6
			c2.1-1,4.1-2.2,6.1-3.5c2-1.4,3.9-2.8,5.7-4.5l1.3-1.2l1.3-1.3c0.9-0.8,1.6-1.8,2.4-2.7c0.8-0.9,1.4-1.9,2.2-2.8
			c0.7-1,1.3-2,1.9-2.9c0.6-1,1.1-2,1.7-2.9c0.5-1,1-2,1.4-2.9c0.5-0.9,0.8-1.9,1.2-2.8c0.4-0.9,0.8-1.8,1-2.7
			c0.6-1.7,1.1-3.3,1.5-4.8c0.4-1.4,0.8-2.7,1-3.8c0.5-2.1,0.7-3.3,0.7-3.3s-0.2,1.2-0.5,3.3c-0.1,1.1-0.5,2.3-0.8,3.8
			c-0.3,1.5-0.8,3.1-1.3,4.9c-0.2,0.9-0.6,1.8-1,2.7c-0.4,0.9-0.7,1.9-1.1,2.9c-0.4,1-0.8,2-1.4,3c-0.5,1-1,2-1.6,3
			c-0.6,1-1.2,2-1.9,3c-0.7,1-1.4,2-2.2,2.9c-0.8,0.9-1.5,1.9-2.4,2.8l-1.3,1.4l-1.4,1.3c-1.8,1.7-3.8,3.2-5.8,4.6
			c-2.1,1.3-4.1,2.5-6.2,3.5c-2.1,1-4.2,1.8-6.2,2.5c-2,0.7-4,1.2-5.8,1.6c-3.6,0.8-6.7,1-8.9,1.1
			C281.5,481.9,280.2,481.8,280.2,481.8z"/>
	</g>
	<g>
		<path fill="#313131" d="M198.8,389.7c0,0,0.8-0.8,2.2-2.1c1.5-1.3,3.6-3.1,6.2-5.1c1.3-1,2.8-2.1,4.3-3.2c1.6-1.1,3.2-2.2,5-3.3
			c0.9-0.6,1.8-1.1,2.7-1.7c0.9-0.6,1.9-1.1,2.8-1.6c1.9-1.1,3.9-2.1,5.9-3.1c2-1,4.1-1.9,6.1-2.7c2.1-0.8,4.1-1.5,6.1-2.1
			c1-0.3,2-0.6,3-0.8c1-0.2,2-0.4,2.9-0.6c1.9-0.4,3.8-0.5,5.5-0.6c1.7,0,3.3,0.1,4.7,0.4c0.7,0.1,1.3,0.3,1.9,0.5
			c0.3,0.1,0.6,0.2,0.8,0.3c0.3,0.1,0.5,0.2,0.7,0.3c0.5,0.2,0.9,0.4,1.2,0.6c0.3,0.2,0.6,0.4,0.8,0.5c0.4,0.3,0.7,0.5,0.7,0.5
			s-0.3-0.1-0.8-0.3c-0.2-0.1-0.5-0.2-0.9-0.3c-0.4-0.1-0.8-0.2-1.2-0.3c-0.2,0-0.5-0.1-0.7-0.1c-0.3,0-0.5,0-0.8-0.1
			c-0.6,0-1.2-0.1-1.8-0.1c-1.3,0-2.8,0.1-4.3,0.4c-0.8,0.1-1.6,0.3-2.4,0.5c-0.8,0.2-1.7,0.4-2.6,0.7c-0.9,0.2-1.8,0.5-2.7,0.9
			c-0.9,0.3-1.9,0.6-2.8,1c-1.9,0.7-3.8,1.5-5.8,2.4c-1.9,0.9-3.9,1.8-5.9,2.7c-3.9,1.9-7.8,3.9-11.4,5.8c-1.8,1-3.6,1.9-5.2,2.8
			c-1.7,0.9-3.2,1.8-4.7,2.6c-2.9,1.6-5.3,2.9-7,3.8C199.7,389.2,198.8,389.7,198.8,389.7z"/>
	</g>
	<g>
		<path fill="#313131" d="M128.2,394.9c0,0-0.6-0.7-1.2-2c-0.3-0.7-0.7-1.5-0.9-2.6c0-0.1,0-0.3-0.1-0.4l0-0.1l0,0l0-0.1l0-0.1
			l0-0.2l0-0.2l0-0.1l0-0.1l0,0l0-0.1c0-0.1,0-0.3,0-0.4c0-0.3,0.1-0.7,0.1-1c0.1-0.4,0.2-0.7,0.4-1.1c0.3-0.7,0.8-1.4,1.5-1.9
			c0.6-0.5,1.4-0.9,2.2-1.2c1.6-0.6,3.2-0.7,4.9-0.7c1.7,0,3.4,0.1,5.1,0.4c1.7,0.3,3.4,0.6,5.1,1.1c1.7,0.5,3.3,0.9,5,1.6
			c1.6,0.8,3.1,1.6,4.4,2.5c1.4,0.9,2.6,1.8,3.8,2.6c1.2,0.8,2.3,1.7,3.3,2.4c1,0.7,2,1.4,2.8,2c0.8,0.6,1.6,1.1,2.2,1.5
			c1.2,0.8,1.9,1.3,1.9,1.3s-0.2-0.1-0.6-0.2c-0.4-0.1-0.9-0.3-1.6-0.6c-1.4-0.5-3.4-1.4-5.6-2.6c-1.1-0.6-2.4-1.2-3.6-2
			c-1.3-0.7-2.6-1.5-4-2.2c-1.4-0.8-2.8-1.5-4.2-2.1c-1.4-0.6-3-1-4.6-1.4c-1.6-0.4-3.2-0.8-4.8-1.1c-1.6-0.3-3.2-0.5-4.6-0.6
			c-1.5-0.1-2.9,0-4.2,0.3c-1.2,0.3-2.2,0.9-2.8,1.7c-0.1,0.2-0.3,0.4-0.3,0.6c-0.1,0.3-0.2,0.5-0.2,0.7c0,0.1-0.1,0.3-0.1,0.4l0,0
			c0-0.1,0,0,0,0l0,0l0,0.1l0,0.1l0,0.2l0,0.2l0,0.1c0,0,0,0,0,0l0,0l0,0.1c0,0.1,0,0.2,0,0.4c0,1,0.2,1.8,0.3,2.6
			C127.9,394.1,128.2,394.9,128.2,394.9z"/>
	</g>
	<g>
		<path fill="#313131" d="M169.9,383.9c0,0,0.3,1,0.7,2.8c0.4,1.8,0.9,4.3,1.4,7.4c0.5,3.1,1.1,6.7,1.4,10.6
			c0.4,3.9,0.6,8.1,0.7,12.2c0,2.1-0.1,4.2-0.2,6.2c-0.1,2.1-0.3,4.1-0.6,6c-0.1,1-0.3,1.9-0.5,2.8c-0.2,0.9-0.4,1.8-0.7,2.7
			c-0.5,1.7-1.1,3.3-1.8,4.8c-0.3,0.7-0.7,1.4-1.1,2c-0.4,0.6-0.8,1.2-1.2,1.7c-0.8,1-1.6,1.8-2.3,2.4c-0.7,0.6-1.3,1-1.7,1.2
			c-0.4,0.3-0.6,0.4-0.6,0.4s0.2-0.2,0.6-0.4c0.4-0.3,1-0.7,1.6-1.3c0.7-0.6,1.4-1.5,2.1-2.5c0.3-0.5,0.7-1.1,1-1.7
			c0.3-0.6,0.7-1.3,1-2c0.6-1.4,1.1-3,1.6-4.7c0.2-0.9,0.4-1.7,0.6-2.7c0.1-0.5,0.2-0.9,0.3-1.4c0.1-0.5,0.1-0.9,0.2-1.4
			c0.3-1.9,0.4-3.9,0.6-5.9c0.1-1,0.1-2,0.1-3.1c0-1,0-2.1,0-3.1c0-4.1-0.2-8.3-0.6-12.2c-0.3-3.9-0.7-7.5-1.1-10.6
			c-0.4-3.1-0.8-5.7-1.1-7.5C170.1,385,169.9,383.9,169.9,383.9z"/>
	</g>
	<path fill="none" stroke="#000000" stroke-miterlimit="10" d="M174.2,445.9"/>
	<g>
		<path fill="#313131" d="M262.5,394.3c0,0-0.8,0-2.1,0c-0.7,0-1.5,0-2.4,0c-0.9,0-2,0-3.1,0c-1.1,0-2.4,0-3.6,0
			c-1.3,0-2.7,0.1-4.1,0.2c-1.4,0-2.8,0.2-4.3,0.3c-1.5,0.1-2.9,0.3-4.4,0.5c-1.5,0.1-2.9,0.5-4.4,0.7c-1.4,0.3-2.8,0.6-4.2,0.9
			c-1.3,0.4-2.7,0.7-3.9,1.1c-1.2,0.4-2.4,0.8-3.4,1.2c-0.5,0.2-1,0.4-1.5,0.6c-0.5,0.2-0.9,0.4-1.3,0.6c-0.8,0.4-1.5,0.8-2.1,1.1
			c-0.6,0.3-1,0.6-1.3,0.8c-0.3,0.2-0.5,0.3-0.5,0.3s0.5-0.6,1.4-1.6c0.5-0.5,1.1-1,1.9-1.6c0.8-0.6,1.6-1.2,2.7-1.8
			c0.5-0.3,1-0.6,1.6-0.9c0.6-0.3,1.2-0.5,1.8-0.8c1.2-0.6,2.5-1.1,3.9-1.6c0.7-0.2,1.4-0.4,2.1-0.6c0.7-0.2,1.5-0.4,2.2-0.6
			c1.5-0.3,3-0.7,4.6-0.8c1.5-0.2,3.1-0.4,4.6-0.4c1.5-0.1,3-0.1,4.5-0.1c1.5,0,2.9,0.1,4.2,0.2c1.3,0.1,2.6,0.3,3.7,0.5
			c0.6,0.1,1.1,0.1,1.6,0.2c0.5,0.1,1,0.2,1.5,0.3c0.9,0.2,1.7,0.4,2.4,0.6C261.8,394.1,262.5,394.3,262.5,394.3z"/>
	</g>
	<g>
		<path fill="#313131" d="M218.9,403.8c0,0,0.3,0.2,1,0.4c0.3,0.1,0.7,0.2,1.1,0.4c0.4,0.1,0.9,0.3,1.5,0.4c0.5,0.1,1.1,0.2,1.7,0.3
			c0.6,0.1,1.3,0.1,2,0.2c0.7,0,1.4,0.1,2.1,0c0.7,0,1.4,0,2.2-0.1l1.1-0.1c0.4,0,0.7-0.1,1.1-0.1c0.4,0,0.7-0.1,1.1-0.1
			c0.4,0,0.7-0.1,1-0.1c0.7-0.1,1.4-0.2,2-0.3c0.6-0.1,1.2-0.2,1.8-0.3c1.1-0.2,2-0.4,2.7-0.5c0.7-0.1,1.1-0.1,1.1-0.1
			s-0.3,0.2-0.9,0.5c-0.6,0.3-1.4,0.8-2.5,1.2c-0.5,0.2-1.1,0.4-1.8,0.6c-0.6,0.2-1.3,0.4-2,0.6c-0.7,0.2-1.4,0.3-2.2,0.4
			c-0.4,0.1-0.8,0.1-1.1,0.2l-1.2,0.1c-0.8,0.1-1.6,0.1-2.3,0c-0.8,0-1.5-0.2-2.3-0.2c-0.7-0.1-1.4-0.3-2.1-0.5
			c-0.3-0.1-0.6-0.2-0.9-0.3c-0.3-0.1-0.6-0.2-0.9-0.4c-0.5-0.2-1-0.5-1.4-0.8c-0.4-0.3-0.7-0.5-1-0.7
			C219.2,404.1,218.9,403.8,218.9,403.8z"/>
	</g>
	<path stroke="#000000" stroke-miterlimit="10" d="M326.2,373.3"/>
	<path stroke="#000000" stroke-miterlimit="10" d="M309.8,370.3"/>
	<path fill="#313131" stroke="#313131" stroke-miterlimit="10" d="M146.4,386c0,0-9.1,16.6,7.4,16.6c14.8,0,7.4-9.6,7.4-9.6"/>
	<g>
		<path fill="#313131" d="M230.6,465.6c10.2,3.2,14.7,17.7,14.7,17.7"/>
		<path fill="#313131" d="M230.6,465.6c0,0,0.4,0.1,1,0.3c0.3,0.1,0.7,0.2,1.1,0.4c0.4,0.2,0.9,0.4,1.4,0.7c0.5,0.3,1,0.6,1.6,1
			c0.5,0.4,1,0.8,1.6,1.3c0.5,0.5,1,1,1.6,1.5c0.5,0.6,1,1.2,1.4,1.8c0.4,0.6,0.9,1.2,1.3,1.9c0.4,0.6,0.8,1.3,1.1,1.9
			c0.7,1.2,1.2,2.5,1.6,3.5c0.4,1.1,0.7,2,0.8,2.6c0.2,0.6,0.2,1,0.2,1s-0.2-0.3-0.4-0.9c-0.3-0.6-0.7-1.4-1.2-2.4
			c-0.5-1-1.1-2.1-1.8-3.3c-0.3-0.6-0.7-1.2-1.1-1.8c-0.4-0.6-0.8-1.2-1.3-1.8c-0.4-0.6-0.9-1.2-1.4-1.7c-0.5-0.5-0.9-1.1-1.4-1.5
			c-0.5-0.4-1-1-1.5-1.3c-0.5-0.4-0.9-0.8-1.4-1.1c-0.5-0.3-0.9-0.6-1.3-0.8c-0.4-0.2-0.8-0.4-1-0.5
			C230.9,465.7,230.6,465.6,230.6,465.6z"/>
	</g>
	<path fill="none" stroke="#000000" stroke-miterlimit="10" d="M153.5,456.6"/>
	<g>
		<path fill="#313131" d="M184.8,476c0,0,0.2-0.2,0.5-0.5c0.2-0.2,0.3-0.3,0.6-0.6c0.2-0.2,0.5-0.4,0.8-0.6c0.2-0.1,0.3-0.2,0.5-0.4
			c0.2-0.1,0.4-0.2,0.6-0.3c0.4-0.2,0.8-0.4,1.3-0.6c0.4-0.2,0.9-0.3,1.4-0.4c0.5-0.1,1-0.2,1.5-0.2c0.5-0.1,1,0,1.5,0
			c0.5,0,1,0.1,1.5,0.1c0.9,0.1,1.8,0.4,2.5,0.6c1.4,0.5,2.3,1.1,2.3,1.1s-0.2-0.1-0.7-0.2c-0.4-0.1-1-0.2-1.7-0.4
			c-0.7-0.1-1.6-0.2-2.5-0.3c-0.4,0-0.9,0-1.4,0c-0.5,0-0.9,0-1.4,0.1c-0.5,0-0.9,0.1-1.4,0.2c-0.2,0-0.5,0.1-0.7,0.1
			c-0.2,0.1-0.4,0.1-0.7,0.2c-0.4,0.1-0.8,0.3-1.2,0.4c-0.2,0.1-0.4,0.1-0.6,0.2c-0.2,0.1-0.3,0.2-0.5,0.2c-0.3,0.2-0.6,0.3-0.9,0.4
			c-0.3,0.2-0.5,0.3-0.7,0.4C185,475.9,184.8,476,184.8,476z"/>
	</g>
	<g>
		<path fill="#313131" d="M365.4,461.1c0,0-0.2,1.5-0.5,4.1c-0.3,2.6-0.8,6.3-1.4,10.7c-0.3,2.2-0.6,4.6-0.9,7.2
			c-0.3,2.5-0.6,5.2-1,8c-0.6,5.6-1.2,11.5-1.7,17.4c-0.2,3-0.4,5.9-0.5,8.9c-0.1,2.9-0.2,5.8-0.2,8.6c0,2.8,0.1,5.5,0.3,8
			c0.2,2.5,0.4,4.9,0.7,7.1c0.4,2.2,0.7,4.2,1.2,5.9c0.5,1.7,1,3.2,1.5,4.4c0.3,0.6,0.5,1.1,0.7,1.6c0.2,0.5,0.5,0.8,0.6,1.1
			c0.4,0.6,0.5,0.9,0.5,0.9s-0.2-0.3-0.6-0.9c-0.2-0.3-0.5-0.6-0.7-1.1c-0.3-0.4-0.5-1-0.9-1.5c-0.6-1.2-1.3-2.6-1.9-4.4
			c-0.3-0.9-0.6-1.8-0.9-2.8c-0.3-1-0.5-2.1-0.8-3.2c-0.4-2.2-0.8-4.6-1.1-7.2c-0.3-2.6-0.5-5.3-0.5-8.1c-0.1-2.8-0.1-5.7,0-8.7
			c0.1-3,0.3-5.9,0.4-8.9c0.2-3,0.5-6,0.8-8.9c0.3-2.9,0.7-5.8,1.1-8.6c0.8-5.6,1.7-10.7,2.5-15.1c0.8-4.4,1.6-8.1,2.2-10.6
			C365.1,462.5,365.4,461.1,365.4,461.1z"/>
	</g>
	<g>
		<path fill="#313131" d="M233.1,585.2c0,0,0.1,1.8,0.3,4.5c0.1,1.4,0.2,2.9,0.3,4.6c0.1,1.7,0.1,3.5,0.1,5.3c0,0.9,0,1.8,0,2.7
			c0,0.9-0.1,1.8-0.1,2.6c-0.1,0.8-0.2,1.7-0.2,2.4c0,0.8-0.2,1.5-0.3,2.2c-0.1,0.7-0.2,1.3-0.3,1.8c-0.2,0.5-0.3,1-0.4,1.4
			c-0.2,0.8-0.3,1.2-0.3,1.2s0.1-0.4,0.3-1.2c0.1-0.4,0.2-0.8,0.3-1.4c0.1-0.5,0.1-1.2,0.2-1.8c0.1-0.7,0.1-1.4,0.1-2.2
			c0-0.8,0-1.6,0.1-2.4c0-0.8-0.1-1.7-0.1-2.6c0-0.9-0.1-1.8-0.2-2.7c-0.1-1.8-0.3-3.6-0.5-5.2c-0.2-1.7-0.4-3.2-0.6-4.6
			c-0.4-2.7-0.7-4.5-0.7-4.5L233.1,585.2z"/>
	</g>
	<g>
		<path fill="none" d="M245.2,501.7"/>
	</g>
	<g>
		<path fill="none" d="M178.5,504"/>
	</g>
	<g>
		<path fill="#313131" d="M172.1,499.2c0,0,0.4,0.7,0.7,1.8c0.3,1.1,0.6,2.5,0.7,4c0.1,1.5,0,2.9-0.2,4.1c-0.2,1.1-0.5,1.9-0.5,1.9
			s-0.4-0.7-0.7-1.8c-0.3-1.1-0.6-2.5-0.6-4c-0.1-1.5,0-2.9,0.2-4.1C171.8,499.9,172.1,499.2,172.1,499.2z"/>
	</g>
	<g>
		<path fill="#313131" d="M148.7,469.7c0,0,0.1,1.5,0.3,3.8c0.2,2.3,0.5,5.3,0.9,8.4c0.4,3,0.9,6,1.7,8.2c0.2,0.5,0.4,1,0.6,1.4
			c0.2,0.4,0.4,0.8,0.6,1c0.2,0.3,0.4,0.5,0.5,0.6c0.1,0.1,0.2,0.2,0.2,0.2s-0.1-0.1-0.2-0.2c-0.2-0.1-0.4-0.3-0.6-0.5
			c-0.2-0.2-0.5-0.6-0.8-1c-0.3-0.4-0.6-0.9-0.8-1.4c-0.5-1.1-1-2.4-1.3-3.8c-0.4-1.4-0.6-2.9-0.8-4.5c-0.4-3.1-0.5-6.2-0.4-8.5
			c0-1.2,0.1-2.1,0.1-2.8C148.6,470.1,148.7,469.7,148.7,469.7z"/>
	</g>
	<path fill="none" stroke="#000000" stroke-miterlimit="10" d="M413.4,370.3"/>
	<g>
		<path fill="#313131" d="M415,369c0,0,0.1,0,0.4,0c0.3,0,0.7,0,1.2,0.2c1,0.2,2.5,0.7,4.2,1.8c0.8,0.6,1.7,1.3,2.5,2.2
			c0.8,0.9,1.6,2,2.2,3.2c0.7,1.2,1.2,2.7,1.6,4.2c0.4,1.5,0.5,3.2,0.6,4.9c0.1,3.4-0.5,7.2-1.5,10.9c-1,3.8-2.5,7.6-4.3,11.4
			c-1.8,3.8-4,7.7-6.2,11.4c-2.3,3.8-4,7.4-4.9,11.8c-0.5,2.2-1.5,4.5-2.6,6.5c-1.2,2-2.5,3.8-3.8,5.6c-0.7,0.9-1.4,1.8-2,2.6
			c-0.7,0.8-1.4,1.7-2.1,2.5c-1.4,1.7-2.8,3.2-4.2,4.8c-1.4,1.6-2.8,3.1-4.2,4.6c-0.7,0.7-1.3,1.4-2.1,2.2c-0.7,0.7-1.5,1.4-2.2,2
			c-3,2.5-6.2,4.6-9.7,5.5c-1.7,0.4-3.6,0.4-5.2-0.2c-1.6-0.6-2.8-1.7-3.7-2.8c-1.7-2.3-2.3-4.7-2.7-6.6c-0.2-1-0.3-1.8-0.4-2.6
			c-0.1-0.8-0.2-1.4-0.2-1.9c-0.1-1-0.1-1.6-0.1-1.6s0.1,0.5,0.3,1.6c0.1,0.5,0.2,1.1,0.4,1.9c0.2,0.7,0.4,1.6,0.7,2.5
			c0.6,1.8,1.4,4.1,3,6.1c0.8,1,1.9,1.8,3.2,2.2c1.3,0.4,2.8,0.3,4.3-0.1c3-0.9,5.9-3,8.7-5.5c0.7-0.6,1.4-1.3,2-2
			c0.6-0.7,1.3-1.5,1.9-2.2c1.3-1.5,2.7-3,4-4.6c2.7-3.2,5.4-6.5,8-9.9c1.3-1.7,2.5-3.5,3.6-5.4c1-1.9,1.8-3.7,2.3-5.8
			c0.5-2.1,1.2-4.5,2.1-6.6c0.4-1.1,1-2.1,1.5-3.1c0.5-1,1.1-1.9,1.7-2.9c0.6-0.9,1.1-1.9,1.7-2.8c0.6-0.9,1.1-1.8,1.6-2.8
			c1.1-1.8,2.1-3.7,3-5.5c1.8-3.7,3.4-7.3,4.6-10.9c1.1-3.6,1.8-7.1,1.9-10.3c0.1-3.2-0.4-6.2-1.5-8.6c-0.5-1.2-1.2-2.2-1.9-3.2
			c-0.7-0.9-1.5-1.6-2.2-2.2c-1.5-1.2-2.9-1.8-3.9-2.1c-0.5-0.2-0.9-0.2-1.2-0.3C415.1,369,415,369,415,369z"/>
	</g>
	<g>
		<path fill="none" d="M333.5,415.6"/>
	</g>
	<g>
		<path fill="none" d="M280.2,373.3"/>
	</g>
	<g>
		<path fill="none" d="M417.2,352.7"/>
	</g>
	<g>
		<path fill="#313131" d="M127.1,387.1c0,0-0.7-0.2-1.8-0.7c-1-0.5-2.3-1.2-3.5-2.2c-0.3-0.3-0.6-0.5-0.8-0.8
			c-0.2-0.3-0.5-0.5-0.7-0.8c-0.2-0.3-0.4-0.5-0.6-0.8c-0.1-0.3-0.3-0.5-0.4-0.8c-0.1-0.3-0.2-0.5-0.3-0.7c-0.1-0.2-0.1-0.4-0.1-0.6
			c-0.1-0.3-0.1-0.5-0.1-0.5s0.1,0.2,0.2,0.5c0.1,0.2,0.1,0.3,0.2,0.5c0.1,0.2,0.2,0.4,0.3,0.7c0.1,0.2,0.3,0.5,0.5,0.7
			c0.2,0.3,0.4,0.5,0.6,0.8c0.2,0.3,0.5,0.5,0.7,0.7c0.3,0.2,0.6,0.5,0.8,0.7c1.2,0.8,2.5,1.5,3.5,1.8c1,0.4,1.7,0.5,1.7,0.5
			L127.1,387.1z"/>
	</g>
	<g>
		<path fill="#313131" d="M126.5,390.2c0,0-0.2,0-0.5-0.1c-0.3,0-0.8-0.1-1.3-0.2c-1.1-0.2-2.5-0.5-3.8-1c-0.7-0.2-1.4-0.4-2-0.7
			c-0.3-0.1-0.6-0.3-0.9-0.4c-0.3-0.1-0.6-0.2-0.8-0.4c-0.9-0.5-1.6-0.8-1.6-0.8s0.7,0.3,1.6,0.7c0.2,0.1,0.5,0.2,0.8,0.3
			c0.3,0.1,0.6,0.2,0.9,0.3c0.6,0.2,1.3,0.3,2,0.5c1.4,0.3,2.8,0.5,3.8,0.6c0.5,0.1,1,0.1,1.3,0.1c0.3,0,0.5,0,0.5,0L126.5,390.2z"
			/>
	</g>
	<g>
		<path fill="#313131" d="M127.6,392.2c0,0-0.2,0-0.5,0.1c-0.3,0.1-0.8,0.2-1.3,0.2c-1.1,0.2-2.5,0.3-3.9,0.4c-0.7,0-1.4,0.1-2.1,0
			c-0.3,0-0.7,0-1,0c-0.3,0-0.6,0-0.9-0.1c-1.1-0.1-1.8-0.2-1.8-0.2s0.7,0,1.8,0.1c0.3,0,0.6,0,0.9,0c0.3,0,0.6,0,1,0
			c0.7,0,1.4-0.1,2.1-0.2c1.4-0.2,2.8-0.5,3.8-0.8c0.5-0.1,0.9-0.2,1.2-0.3c0.3-0.1,0.5-0.1,0.5-0.1L127.6,392.2z"/>
	</g>
	<path fill="none" stroke="#000000" stroke-miterlimit="10" d="M269.1,387.9"/>
	<g>
		<path fill="#313131" d="M259.2,393.4c0,0,0.8-0.4,1.9-1.2c0.6-0.4,1.2-0.9,1.9-1.4c0.7-0.5,1.4-1.1,2-1.8c0.6-0.7,1.3-1.3,1.8-2
			c0.3-0.3,0.5-0.7,0.7-1c0.2-0.3,0.4-0.6,0.6-1c0.2-0.3,0.3-0.6,0.4-0.8c0.1-0.3,0.2-0.5,0.3-0.7c0.2-0.4,0.3-0.6,0.3-0.6
			s-0.1,0.2-0.2,0.6c-0.1,0.2-0.1,0.4-0.2,0.7c-0.1,0.3-0.2,0.6-0.4,0.9c-0.1,0.3-0.3,0.7-0.5,1c-0.2,0.4-0.4,0.7-0.7,1.1
			c-0.5,0.7-1,1.5-1.7,2.2c-0.6,0.7-1.3,1.4-1.9,2c-0.6,0.6-1.3,1.1-1.8,1.6c-1.1,0.9-1.9,1.4-1.9,1.4L259.2,393.4z"/>
	</g>
	<g>
		<path fill="#313131" d="M255,393.9c0,0,0.8-0.6,2-1.7c1.2-1.1,2.6-2.7,3.8-4.4c0.3-0.4,0.6-0.9,0.9-1.3c0.3-0.4,0.5-0.9,0.8-1.3
			c0.2-0.4,0.4-0.9,0.6-1.3c0.2-0.4,0.4-0.8,0.5-1.2c0.1-0.4,0.2-0.7,0.4-1c0.1-0.3,0.2-0.6,0.2-0.8c0.1-0.5,0.2-0.7,0.2-0.7
			s-0.1,0.3-0.1,0.7c0,0.2-0.1,0.5-0.2,0.8c-0.1,0.3-0.2,0.7-0.3,1.1c-0.1,0.4-0.2,0.8-0.4,1.2c-0.2,0.4-0.3,0.9-0.5,1.4
			c-0.2,0.5-0.4,0.9-0.7,1.4c-0.2,0.5-0.5,0.9-0.8,1.4c-1.1,1.9-2.5,3.6-3.7,4.7c-1.1,1.2-2,1.9-2,1.9L255,393.9z"/>
	</g>
	<g>
		<path fill="#313131" d="M253.7,392.5c0,0,0.6-0.4,1.3-1.3c0.8-0.8,1.7-2,2.5-3.3c0.4-0.6,0.7-1.3,1-1.9c0.1-0.3,0.3-0.6,0.4-0.9
			c0.1-0.3,0.2-0.6,0.3-0.9c0.2-0.5,0.3-1,0.3-1.3c0.1-0.3,0.1-0.5,0.1-0.5s0,0.2-0.1,0.5c0,0.3-0.1,0.8-0.2,1.4
			c0,0.3-0.1,0.6-0.2,0.9c-0.1,0.3-0.2,0.7-0.3,1c-0.2,0.7-0.5,1.4-0.9,2.1c-0.7,1.4-1.5,2.7-2.3,3.6c-0.7,0.9-1.3,1.5-1.3,1.5
			L253.7,392.5z"/>
	</g>
	<path fill="none" stroke="#000000" stroke-miterlimit="10" d="M333.5,415.6"/>
	<path fill="none" stroke="#000000" stroke-miterlimit="10" d="M334.9,420.9"/>
	<g>
		<path fill="#313131" d="M411.7,380c0,0,0.1,0,0.3-0.1c0.2,0,0.5-0.1,1-0.1c0.4,0,0.9,0,1.5,0.3c0.6,0.2,1.2,0.6,1.7,1.1
			c0.5,0.6,1,1.3,1.3,2.1c0.3,0.8,0.5,1.7,0.5,2.6c0.1,0.9,0.1,1.8,0,2.8c-0.1,0.9-0.3,1.9-0.4,2.8c-0.2,0.9-0.4,1.8-0.7,2.7
			c-0.2,0.9-0.6,1.7-0.9,2.5c-0.6,1.6-1.3,3.1-1.9,4.3c-0.6,1.2-1.2,2.2-1.6,2.9c-0.4,0.7-0.7,1.1-0.7,1.1s0.1-0.5,0.3-1.2
			c0.1-0.4,0.2-0.9,0.4-1.4c0.2-0.5,0.3-1.1,0.5-1.8c0.2-0.7,0.4-1.4,0.6-2.1c0.2-0.7,0.5-1.5,0.7-2.4c0.2-0.8,0.5-1.7,0.7-2.5
			c0.2-0.9,0.4-1.7,0.6-2.6c0.2-0.9,0.4-1.7,0.5-2.6c0.1-0.9,0.2-1.7,0.2-2.5c0-0.8-0.1-1.6-0.2-2.3c-0.2-0.7-0.4-1.3-0.7-1.8
			c-0.7-1-1.7-1.5-2.4-1.7C412.2,380,411.7,380,411.7,380z"/>
	</g>
	<g>
		<path fill="#313131" d="M404.2,396.5c0,0,0.2,0,0.5,0c0.4,0,0.9,0.1,1.5,0.4c0.6,0.3,1.3,1,1.5,2.1c0.2,1,0,2.1-0.3,3.3
			c-0.2,0.5-0.4,1.1-0.7,1.7c-0.3,0.6-0.6,1.2-0.9,1.7c-0.7,1.1-1.4,2.3-2.1,3.5c-0.7,1.2-1.3,2.4-1.7,3.7l-0.2,0.9
			c0,0.3-0.1,0.6,0,0.9c0,0.6,0.2,1.1,0.5,1.8c0.3,0.7,0.7,1.5,0.7,2.5c0,0.2,0,0.5,0,0.7c0,0.2,0,0.5-0.1,0.7l-0.2,0.6l0,0.2l0,0.1
			l-0.1,0.1l0,0l-0.1,0.3c-0.2,0.6-0.9,1.5-1.4,2c-0.5,0.6-1.1,1.1-1.6,1.6c-2.3,1.9-4.6,3.2-6.7,4.1c-2.1,0.9-3.9,1.5-5.2,1.8
			c-0.7,0.1-1.2,0.1-1.5,0.1c-0.4-0.1-0.5-0.1-0.5-0.1s0.2,0,0.5,0c0.3-0.1,0.8-0.2,1.5-0.4c1.2-0.4,2.9-1.3,4.8-2.4
			c1-0.6,2-1.2,3-2c1-0.7,2.1-1.6,3.1-2.5c0.5-0.5,1-0.9,1.4-1.5c0.2-0.3,0.4-0.5,0.5-0.7c0.1-0.1,0.2-0.2,0.3-0.4l0.2-0.5l0.1-0.3
			l0,0l0,0c0,0,0-0.1,0,0.1l0-0.1l0-0.1l0.1-0.4c0-0.1,0-0.3,0-0.4c0-0.1,0-0.3,0-0.4c0-0.6-0.3-1.1-0.6-1.8
			c-0.3-0.7-0.6-1.6-0.6-2.5c0-0.5,0.1-0.9,0.1-1.3c0.1-0.4,0.2-0.8,0.3-1.2c0.5-1.5,1.3-2.8,2.1-4.1c0.8-1.2,1.6-2.3,2.4-3.3
			c0.7-1,1.3-2.1,1.8-3c0.4-1,0.7-1.9,0.6-2.8c-0.1-0.8-0.5-1.5-0.9-1.8c-0.5-0.4-1-0.6-1.3-0.7
			C404.3,396.5,404.2,396.5,404.2,396.5z"/>
	</g>
	<path fill="none" stroke="#313131" stroke-miterlimit="10" d="M385.3,457.7c0,4.1-3.5,7.5-7.7,7.5s-7.7-3.3-7.7-7.5
		s3.5-7.5,7.7-7.5S385.3,453.6,385.3,457.7z"/>
	<g>
		<path fill="#313131" d="M217.6,399.9c0,0,0.1-0.3,0.4-0.7c0.3-0.5,0.7-1.1,1.2-1.9c0.5-0.7,1.2-1.6,2-2.4c0.4-0.4,0.8-0.9,1.2-1.3
			c0.4-0.4,0.9-0.8,1.4-1.2c0.5-0.4,1-0.7,1.5-1.1c0.5-0.3,1-0.7,1.5-0.9c0.5-0.3,1-0.5,1.5-0.7c0.5-0.2,1-0.4,1.4-0.5
			c0.5-0.1,0.9-0.2,1.2-0.3c0.4-0.1,0.7-0.1,1-0.1c0.5,0,0.8,0,0.8,0s-0.3,0.1-0.8,0.2c-0.3,0.1-0.6,0.1-0.9,0.3
			c-0.3,0.1-0.7,0.3-1.1,0.5c-0.4,0.2-0.8,0.4-1.3,0.6c-0.5,0.2-0.9,0.5-1.4,0.8c-0.5,0.3-0.9,0.6-1.4,1c-0.5,0.4-0.9,0.7-1.4,1.1
			c-0.5,0.4-0.9,0.8-1.3,1.2c-0.4,0.4-0.9,0.8-1.3,1.2c-0.8,0.8-1.5,1.5-2.2,2.2c-0.6,0.7-1.1,1.2-1.5,1.6
			C217.8,399.7,217.6,399.9,217.6,399.9z"/>
	</g>
	<path fill="#FFFFFF" stroke="#000000" stroke-miterlimit="10" d="M151.1,392.3"/>
	<path fill="none" stroke="#EFEFEF" stroke-miterlimit="10" d="M151.1,392.9c0,0,3.7-0.2,4.3,2.9"/>
</g>
<g id="highlights">
	<path fill="#313131" d="M426.8,383.9c0,0,0-12.1-11.8-14.9c-3.8,22.5-39.2,78.1-53.1,80.6c-5.5-2.5-25.1-31.7-25.1-31.7
		c-19.8-7.7-29.9-17.2-67.7-57.3c-79.6,0-127.5-88.5-131.8-58.9c-4.2,29.6-24,60.9-24,60.9c-2.7-50-8.1-70,10.9-100.9
		s36.3-51.8,60.4-63.7c24.1-11.8,32.3-40.9,99.6-40.9s113.7,19.1,142.8,74.6C456.3,287.2,444.1,336.9,426.8,383.9 M405.7,352.7
		l-6.7,11.5l-2.6-11.5c0,0-4.8,4-7.7,7.9c-2.9,3.9-6.1-10.6-5.1-15.1c1-4.5-7.4,4.5-7.7,4.5s-6.4-21.8,2.6-41.1
		c9-19.3-1.1-11.2-4.9-3.2c-3.8,8-6.8,13.2-8,14.5c-1.2,1.3-1.5-14.7-0.5-16.8c0.9-2.1-6.8,5.6-8.1,9.1s5.6-38.9,5.1-50.1
		c-0.6-11.2-13.1,38.2-13.1,38.2s-4.2-21.2,0-33.7c4.2-12.5-13.5,24.7-12.2,30.8c1.3,6.1,0.3-45.3-3.1-49.5
		c-3.4-4.2-5.3,34.1-5.3,35.3s-3-26.3-2-32.5s-17.8,19.6-16.4,26c1.4,6.4-7.9-31.5-7-35c1-3.5-3.9,25.1-2.2,34.4
		c1.6,9.3-30.5-43.4-32.8-51.7c-2.2-8.4,3.2,26.7,9.8,31.5c6.6,4.8-25.8-19.6-35.8-20.2s-10.3,1.6-4.9,5.1c5.5,3.5-2.6-2.9-8.4-0.3
		c-5.8,2.6,30.2,16.4,40.5,26.3c10.3,10,19,16.1,24.1,26.7c5.1,10.6,4.5-1.6,3.2-6.1s23.8,34.5,26.7,65c2.9,30.5,8.7-28,8.7-37
		c0-9,6.1,57.6,13.5,57.5c7.4,0,3.2-21.2,3.9-22.2c0.6-1,16.4,30,15.8,38.6c-0.7,8.6,2.9-8.1,2.5-11.9c-0.3-3.9,9.3,17.2,9.3,27.4
		s4.2-12.2,4.2-19.1s4.5,16.8,4.3,26.8c-0.2,10,12.7-26.3,12.7-24.4s2.2,5.2,2.2,5.9C400.2,395.1,407.3,370.2,405.7,352.7z
		 M192.2,254.5c-8.6-10-21.4-22.2-20-2.9s39.4,43.7,22.8,44.4s-26.4-22.2-26.4-22.2c-41,50.1,180.5,77.3,105.2,63.4
		c-75.3-13.8-70.1-110.7-62.8-69.9c7.3,40.8,110.8,76.8,91.5,68.7S194.9,228,194.9,228C196.9,238,200.8,264.5,192.2,254.5z"/>
	<path fill="#FFFFFF" d="M169.6,369"/>
	
		<ellipse transform="matrix(0.9527 -0.3038 0.3038 0.9527 -149.3846 91.5244)" fill="#FFFFFF" stroke="#313131" stroke-miterlimit="10" cx="219.4" cy="525.8" rx="9.1" ry="2.4"/>
</g>
</svg>
