<?xml version="1.0" encoding="utf-8"?>
<!-- Generator: Adobe Illustrator 17.1.0, SVG Export Plug-In . SVG Version: 6.00 Build 0)  -->
<!DOCTYPE svg PUBLIC "-//W3C//DTD SVG 1.1//EN" "http://www.w3.org/Graphics/SVG/1.1/DTD/svg11.dtd">
<svg version="1.1" id="Layer_1" xmlns="http://www.w3.org/2000/svg" xmlns:xlink="http://www.w3.org/1999/xlink" x="0px" y="0px"
	 viewBox="0 0 20 20" enable-background="new 0 0 20 20" xml:space="preserve">
<path fill="#1E1E24" d="M16.2,0c1,0,1.9,0.4,2.6,1.1c0.7,0.7,1.1,1.6,1.1,2.6v12.5c0,1-0.4,1.9-1.1,2.6c-0.7,0.7-1.6,1.1-2.6,1.1
	H6.8c0.7-1.1,1.2-2,1.4-2.7c0.1-0.3,0.3-1.2,0.7-2.7c0.2,0.3,0.5,0.6,1,0.9c0.5,0.2,0.9,0.4,1.5,0.4c1.6,0,2.8-0.6,3.8-1.9
	c1-1.3,1.5-2.9,1.5-4.9c0-0.7-0.1-1.4-0.5-2.1c-0.3-0.7-0.7-1.3-1.2-1.8c-0.5-0.5-1.2-0.9-2-1.3c-0.8-0.3-1.6-0.5-2.6-0.5
	c-0.9,0-1.7,0.1-2.5,0.4c-0.8,0.2-1.4,0.6-2,1c-0.5,0.4-1,0.9-1.4,1.4C4.1,6.6,3.8,7.2,3.6,7.8C3.4,8.3,3.3,8.9,3.3,9.5
	c0,0.9,0.2,1.7,0.5,2.3c0.3,0.7,0.8,1.2,1.5,1.4c0.1,0.1,0.2,0.1,0.3,0c0.1,0,0.1-0.1,0.2-0.3C5.9,12.6,6,12.4,6,12.2
	c0.1-0.2,0-0.4-0.1-0.5c-0.4-0.5-0.7-1.2-0.7-1.9c0-1.3,0.4-2.4,1.3-3.3C7.5,5.5,8.7,5,10.1,5c1.3,0,2.3,0.4,3,1.1
	c0.7,0.7,1.1,1.6,1.1,2.7c0,1.5-0.3,2.7-0.9,3.7c-0.6,1-1.3,1.5-2.3,1.5c-0.5,0-0.9-0.2-1.3-0.6c-0.3-0.4-0.4-0.8-0.3-1.3
	c0.1-0.3,0.2-0.7,0.3-1.2c0.2-0.5,0.3-0.9,0.4-1.3c0.1-0.4,0.1-0.7,0.1-1c0-0.4-0.1-0.8-0.3-1.1c-0.2-0.3-0.6-0.4-1-0.4
	c-0.5,0-1,0.2-1.3,0.7C7.4,8.4,7.2,9,7.2,9.7c0,0.6,0.1,1.2,0.3,1.6l-1.3,5.4c-0.2,0.9-0.2,2-0.1,3.3H3.7c-1,0-1.9-0.4-2.7-1.1
	C0.4,18.1,0,17.2,0,16.2V3.7c0-1,0.4-1.9,1.1-2.6C1.8,0.4,2.7,0,3.7,0H16.2z"/>
</svg>
